<?xml version="1.0" standalone="no"?>
<!DOCTYPE svg PUBLIC "-//W3C//DTD SVG 20010904//EN"
 "http://www.w3.org/TR/2001/REC-SVG-20010904/DTD/svg10.dtd">
<svg version="1.0" xmlns="http://www.w3.org/2000/svg"
 width="802.000000pt" height="245.000000pt" viewBox="0 0 802.000000 245.000000"
 preserveAspectRatio="xMidYMid meet">

<g transform="translate(0.000000,245.000000) scale(0.100000,-0.100000)"
fill="#000000" stroke="none">
<path d="M4620 2206 c-14 -8 -157 -120 -319 -249 l-294 -235 -168 -4 c-186 -3
-199 -7 -246 -78 -23 -32 -23 -39 -23 -324 0 -325 3 -339 69 -383 32 -22 44
-23 196 -23 l162 0 308 -246 c169 -135 318 -249 332 -255 30 -11 87 10 102 39
8 15 11 281 11 870 l0 850 -31 26 c-34 29 -61 32 -99 12z m-50 -896 l0 -620
-220 176 -220 176 1 272 0 271 217 172 c119 95 218 173 220 173 1 0 2 -279 2
-620z m-630 0 l0 -220 -95 0 -95 0 0 220 0 220 95 0 95 0 0 -220z"/>
<path d="M530 2184 c-252 -34 -432 -163 -485 -348 -23 -78 -16 -199 15 -281
18 -46 39 -76 91 -127 81 -80 200 -142 407 -213 223 -76 306 -128 338 -210 35
-93 -8 -185 -104 -222 -58 -22 -219 -24 -302 -4 -60 15 -140 52 -157 73 -6 7
-18 60 -28 118 -9 58 -20 109 -24 113 -4 4 -68 6 -142 5 l-134 -3 -3 -206 -2
-207 48 -30 c177 -114 366 -158 640 -149 234 8 355 49 467 162 93 92 134 205
121 331 -24 235 -157 358 -521 484 -168 58 -296 120 -325 158 -43 54 -45 135
-6 195 29 43 113 78 203 84 85 5 199 -14 262 -44 36 -18 36 -18 56 -128 l20
-110 138 -3 137 -3 0 198 0 198 -67 41 c-146 88 -274 123 -473 128 -74 2 -151
2 -170 0z"/>
<path d="M1527 2163 c-4 -3 -7 -53 -7 -109 0 -118 -13 -103 110 -127 l65 -13
3 -576 2 -577 -57 -11 c-32 -6 -71 -15 -88 -19 l-30 -7 -3 -107 -3 -107 361 0
360 0 0 109 0 109 -37 7 c-21 3 -59 11 -85 17 l-48 10 0 209 0 209 315 0 315
0 0 -209 0 -209 -47 -10 c-27 -6 -65 -14 -85 -17 l-38 -7 0 -109 0 -109 355 0
355 0 0 109 0 109 -37 7 c-21 3 -59 11 -86 17 l-47 10 2 576 3 577 60 12 c33
7 70 15 83 18 21 5 22 9 22 115 l0 110 -355 0 -355 0 0 -109 c0 -78 4 -110 13
-114 6 -2 45 -10 85 -17 l72 -13 0 -224 0 -223 -315 0 -315 0 0 223 0 224 73
13 c39 7 78 15 85 17 8 4 12 36 12 114 l0 109 -353 0 c-195 0 -357 -3 -360 -7z"/>
<path d="M5730 2041 c0 -78 4 -110 13 -114 6 -2 45 -10 85 -17 l72 -13 0 -578
0 -577 -47 -10 c-27 -6 -65 -14 -85 -17 l-38 -7 0 -109 0 -109 360 0 361 0 -3
108 -3 107 -97 19 -98 18 0 197 c0 108 -5 324 -11 481 -6 157 -9 298 -7 313 2
19 79 -170 248 -603 l245 -630 141 0 c104 0 143 3 147 12 2 7 109 290 237 628
128 338 237 620 243 625 6 7 7 -22 3 -84 -3 -52 -6 -284 -6 -516 l0 -423 -90
-17 -90 -17 0 -109 0 -109 355 0 355 0 0 109 0 109 -37 7 c-21 3 -59 11 -85
17 l-48 10 0 577 0 578 73 13 c39 7 78 15 85 17 8 4 12 36 12 114 l0 109 -359
0 -359 0 -10 -27 c-73 -204 -395 -1070 -402 -1082 -7 -13 -11 -11 -20 14 -7
17 -97 253 -200 525 -103 272 -195 512 -203 533 l-16 37 -360 0 -361 0 0 -109z"/>
<path d="M5129 1965 c-31 -17 -53 -65 -44 -95 4 -12 35 -57 70 -99 65 -82 112
-169 142 -267 13 -45 17 -92 17 -194 0 -118 -3 -145 -26 -212 -32 -96 -85
-191 -141 -254 -57 -64 -70 -89 -62 -123 11 -49 51 -76 107 -72 26 2 93 66
144 137 127 178 190 420 164 629 -22 173 -100 353 -211 484 -65 78 -106 95
-160 66z"/>
<path d="M4935 1775 c-41 -40 -34 -89 20 -155 155 -188 153 -435 -4 -624 -53
-63 -57 -111 -10 -150 36 -31 63 -33 106 -7 70 43 168 213 193 336 43 204 -19
432 -155 572 -44 45 -56 53 -89 53 -26 0 -44 -7 -61 -25z"/>
</g>
</svg>
