<?xml version="1.0" standalone="no"?>
<!DOCTYPE svg PUBLIC "-//W3C//DTD SVG 20010904//EN"
 "http://www.w3.org/TR/2001/REC-SVG-20010904/DTD/svg10.dtd">
<svg version="1.0" xmlns="http://www.w3.org/2000/svg"
 width="802.000000pt" height="316.000000pt" viewBox="0 0 802.000000 316.000000"
 preserveAspectRatio="xMidYMid meet">

<g transform="translate(0.000000,316.000000) scale(0.100000,-0.100000)"
fill="#000000" stroke="none">
<path d="M4620 2706 c-14 -8 -157 -120 -319 -249 l-294 -235 -168 -4 c-186 -3
-199 -7 -246 -78 -23 -32 -23 -39 -23 -324 0 -325 3 -339 69 -383 32 -22 44
-23 196 -23 l162 0 308 -246 c169 -135 318 -249 332 -255 30 -11 87 10 102 39
8 15 11 281 11 870 l0 850 -31 26 c-34 29 -61 32 -99 12z m-50 -896 l0 -620
-220 176 -220 176 1 272 0 271 217 172 c119 95 218 173 220 173 1 0 2 -279 2
-620z m-630 0 l0 -220 -95 0 -95 0 0 220 0 220 95 0 95 0 0 -220z"/>
<path d="M530 2684 c-252 -34 -432 -163 -485 -348 -23 -78 -16 -199 15 -281
18 -46 39 -76 91 -127 81 -80 200 -142 407 -213 223 -76 306 -128 338 -210 35
-93 -8 -185 -104 -222 -58 -22 -219 -24 -302 -4 -60 15 -140 52 -157 73 -6 7
-18 60 -28 118 -9 58 -20 109 -24 113 -4 4 -68 6 -142 5 l-134 -3 -3 -206 -2
-207 48 -30 c177 -114 366 -158 640 -149 234 8 355 49 467 162 93 92 134 205
121 331 -24 235 -157 358 -521 484 -168 58 -296 120 -325 158 -43 54 -45 135
-6 195 29 43 113 78 203 84 85 5 199 -14 262 -44 36 -18 36 -18 56 -128 l20
-110 138 -3 137 -3 0 198 0 198 -67 41 c-146 88 -274 123 -473 128 -74 2 -151
2 -170 0z"/>
<path d="M1527 2663 c-4 -3 -7 -53 -7 -109 0 -118 -13 -103 110 -127 l65 -13
3 -576 2 -577 -57 -11 c-32 -6 -71 -15 -88 -19 l-30 -7 -3 -107 -3 -107 361 0
360 0 0 109 0 109 -37 7 c-21 3 -59 11 -85 17 l-48 10 0 209 0 209 315 0 315
0 0 -209 0 -209 -47 -10 c-27 -6 -65 -14 -85 -17 l-38 -7 0 -109 0 -109 355 0
355 0 0 109 0 109 -37 7 c-21 3 -59 11 -86 17 l-47 10 2 576 3 577 60 12 c33
7 70 15 83 18 21 5 22 9 22 115 l0 110 -355 0 -355 0 0 -109 c0 -78 4 -110 13
-114 6 -2 45 -10 85 -17 l72 -13 0 -224 0 -223 -315 0 -315 0 0 223 0 224 73
13 c39 7 78 15 85 17 8 4 12 36 12 114 l0 109 -353 0 c-195 0 -357 -3 -360 -7z"/>
<path d="M5730 2541 c0 -78 4 -110 13 -114 6 -2 45 -10 85 -17 l72 -13 0 -578
0 -577 -47 -10 c-27 -6 -65 -14 -85 -17 l-38 -7 0 -109 0 -109 360 0 361 0 -3
108 -3 107 -97 19 -98 18 0 197 c0 108 -5 324 -11 481 -6 157 -9 298 -7 313 2
19 79 -170 248 -603 l245 -630 141 0 c104 0 143 3 147 12 2 7 109 290 237 628
128 338 237 620 243 625 6 7 7 -22 3 -84 -3 -52 -6 -284 -6 -516 l0 -423 -90
-17 -90 -17 0 -109 0 -109 355 0 355 0 0 109 0 109 -37 7 c-21 3 -59 11 -85
17 l-48 10 0 577 0 578 73 13 c39 7 78 15 85 17 8 4 12 36 12 114 l0 109 -359
0 -359 0 -10 -27 c-73 -204 -395 -1070 -402 -1082 -7 -13 -11 -11 -20 14 -7
17 -97 253 -200 525 -103 272 -195 512 -203 533 l-16 37 -360 0 -361 0 0 -109z"/>
<path d="M5129 2465 c-31 -17 -53 -65 -44 -95 4 -12 35 -57 70 -99 65 -82 112
-169 142 -267 13 -45 17 -92 17 -194 0 -118 -3 -145 -26 -212 -32 -96 -85
-191 -141 -254 -57 -64 -70 -89 -62 -123 11 -49 51 -76 107 -72 26 2 93 66
144 137 127 178 190 420 164 629 -22 173 -100 353 -211 484 -65 78 -106 95
-160 66z"/>
<path d="M4935 2275 c-41 -40 -34 -89 20 -155 155 -188 153 -435 -4 -624 -53
-63 -57 -111 -10 -150 36 -31 63 -33 106 -7 70 43 168 213 193 336 43 204 -19
432 -155 572 -44 45 -56 53 -89 53 -26 0 -44 -7 -61 -25z"/>
<path d="M530 640 c0 -11 7 -20 15 -20 12 0 15 -19 15 -110 0 -67 -4 -110 -10
-110 -5 0 -10 -9 -10 -20 0 -18 7 -20 55 -20 43 0 55 3 55 15 0 9 -7 18 -15
21 -12 5 -15 30 -15 135 l0 129 -45 0 c-38 0 -45 -3 -45 -20z"/>
<path d="M930 645 c0 -9 7 -18 15 -21 12 -5 15 -27 15 -115 0 -66 -4 -109 -10
-109 -5 0 -10 -9 -10 -20 0 -17 7 -20 50 -20 43 0 50 3 50 20 0 11 -4 20 -10
20 -13 0 -13 27 0 35 18 11 40 -15 40 -46 0 -28 2 -29 50 -29 62 0 64 12 9 69
-22 24 -38 48 -36 54 2 7 18 21 35 32 17 11 31 28 32 38 0 14 -9 17 -55 17
-41 0 -55 -4 -55 -14 0 -8 5 -18 11 -21 11 -7 -16 -45 -33 -45 -4 0 -8 38 -8
85 l0 85 -45 0 c-34 0 -45 -4 -45 -15z"/>
<path d="M1420 645 c0 -9 7 -18 15 -21 12 -5 15 -27 15 -115 0 -66 -4 -109
-10 -109 -5 0 -10 -9 -10 -20 0 -17 7 -20 50 -20 43 0 50 3 50 20 0 11 -4 20
-10 20 -13 0 -13 27 0 35 18 11 40 -15 40 -46 0 -28 2 -29 50 -29 62 0 64 12
9 69 -22 24 -38 48 -36 54 2 7 18 21 35 32 17 11 31 28 32 38 0 14 -9 17 -55
17 -41 0 -55 -4 -55 -14 0 -8 5 -18 11 -21 11 -7 -16 -45 -33 -45 -4 0 -8 38
-8 85 l0 85 -45 0 c-34 0 -45 -4 -45 -15z"/>
<path d="M2180 640 c0 -11 5 -20 10 -20 6 0 10 -43 10 -110 0 -67 -4 -110 -10
-110 -5 0 -10 -9 -10 -20 0 -17 7 -20 50 -20 43 0 50 3 50 20 0 11 -5 20 -10
20 -7 0 -10 22 -8 58 3 53 5 57 28 57 23 0 25 -4 28 -57 2 -36 -1 -58 -8 -58
-5 0 -10 -9 -10 -20 0 -18 7 -20 55 -20 43 0 55 3 55 15 0 9 -7 18 -15 21 -11
5 -15 22 -15 70 0 51 -4 68 -20 84 -24 24 -57 26 -82 3 -17 -15 -18 -14 -18
45 l0 62 -40 0 c-33 0 -40 -3 -40 -20z"/>
<path d="M2910 635 c0 -21 5 -25 30 -25 25 0 30 4 30 25 0 21 -5 25 -30 25
-25 0 -30 -4 -30 -25z"/>
<path d="M3490 645 c0 -9 7 -18 15 -21 12 -5 15 -27 15 -115 0 -66 -4 -109
-10 -109 -5 0 -10 -9 -10 -20 0 -17 7 -20 50 -20 43 0 50 3 50 20 0 11 -4 20
-10 20 -13 0 -13 27 0 35 18 11 40 -15 40 -46 0 -28 2 -29 50 -29 62 0 64 12
9 69 -22 24 -38 48 -36 54 2 7 18 21 35 32 17 11 31 28 32 38 0 14 -9 17 -55
17 -41 0 -55 -4 -55 -14 0 -8 5 -18 11 -21 11 -7 -16 -45 -33 -45 -4 0 -8 38
-8 85 l0 85 -45 0 c-34 0 -45 -4 -45 -15z"/>
<path d="M7650 635 c0 -21 5 -25 30 -25 25 0 30 4 30 25 0 21 -5 25 -30 25
-25 0 -30 -4 -30 -25z"/>
<path d="M10 624 c0 -8 6 -22 14 -29 7 -7 30 -63 52 -124 38 -110 38 -111 70
-111 32 0 32 0 69 113 21 61 44 117 51 123 8 6 14 19 14 28 0 13 -11 16 -55
16 -48 0 -55 -2 -55 -20 0 -12 7 -20 16 -20 11 0 15 -6 11 -17 -2 -10 -13 -46
-22 -80 -10 -35 -21 -63 -25 -63 -4 0 -17 35 -31 77 -17 57 -20 78 -11 81 6 2
12 12 12 23 0 16 -7 19 -55 19 -43 0 -55 -3 -55 -16z"/>
<path d="M4130 600 c0 -33 3 -40 19 -40 11 0 23 9 26 20 5 15 15 20 41 20 19
0 34 -2 34 -5 0 -3 -29 -49 -65 -103 -36 -53 -65 -105 -65 -114 0 -16 11 -18
105 -18 l105 0 0 40 c0 33 -4 40 -19 40 -10 0 -21 -9 -24 -20 -4 -16 -14 -20
-46 -20 -23 0 -41 2 -41 5 0 3 29 51 65 106 36 55 65 106 65 114 0 12 -19 15
-100 15 l-100 0 0 -40z"/>
<path d="M4445 626 c-47 -21 -69 -62 -69 -127 -1 -67 21 -104 72 -126 49 -20
99 -11 136 26 53 53 47 161 -12 214 -27 24 -89 31 -127 13z m100 -59 c21 -30
19 -110 -2 -135 -46 -54 -113 -14 -113 67 0 84 74 127 115 68z"/>
<path d="M4713 625 c-66 -29 -52 -107 25 -135 53 -20 83 -45 76 -64 -14 -35
-80 -28 -94 10 -6 14 -18 24 -30 24 -16 0 -20 -7 -20 -36 0 -31 4 -37 37 -51
46 -19 116 -13 143 12 27 25 26 78 -2 104 -12 11 -37 26 -57 32 -64 21 -82 52
-39 68 30 11 60 2 65 -21 3 -11 14 -18 29 -18 20 0 24 5 24 31 0 25 -6 32 -35
45 -43 17 -80 17 -122 -1z"/>
<path d="M4920 621 c0 -10 7 -21 15 -25 12 -4 15 -25 15 -101 0 -78 -3 -95
-15 -95 -8 0 -15 -9 -15 -20 0 -18 7 -20 55 -20 48 0 55 2 55 20 0 11 -4 20
-10 20 -5 0 -10 18 -10 40 l0 40 50 0 50 0 0 -39 c0 -25 -5 -41 -15 -45 -8 -3
-15 -12 -15 -21 0 -12 13 -15 60 -15 47 0 60 3 60 15 0 9 -7 18 -15 21 -12 5
-15 26 -15 105 0 81 3 99 15 99 8 0 15 9 15 20 0 18 -7 20 -60 20 -53 0 -60
-2 -60 -20 0 -11 7 -20 15 -20 11 0 15 -11 15 -40 l0 -40 -50 0 -50 0 0 40 c0
22 5 40 10 40 6 0 10 9 10 20 0 18 -7 20 -55 20 -47 0 -55 -3 -55 -19z"/>
<path d="M5350 621 c0 -10 7 -21 15 -25 12 -4 15 -25 15 -101 0 -78 -3 -95
-15 -95 -8 0 -15 -9 -15 -20 0 -18 7 -20 55 -20 48 0 55 2 55 20 0 11 -4 20
-10 20 -6 0 -10 40 -10 100 0 60 4 100 10 100 6 0 10 9 10 20 0 18 -7 20 -55
20 -47 0 -55 -3 -55 -19z"/>
<path d="M5680 621 c0 -10 7 -21 15 -25 12 -4 15 -25 15 -101 0 -78 -3 -95
-15 -95 -8 0 -15 -9 -15 -20 0 -18 7 -20 55 -20 48 0 55 2 55 20 0 11 -4 20
-10 20 -6 0 -10 40 -10 100 0 60 4 100 10 100 6 0 10 9 10 20 0 18 -7 20 -55
20 -47 0 -55 -3 -55 -19z"/>
<path d="M5840 621 c0 -10 7 -21 15 -25 12 -4 15 -25 15 -101 0 -78 -3 -95
-15 -95 -8 0 -15 -9 -15 -20 0 -18 7 -20 55 -20 48 0 55 2 55 20 0 11 -4 20
-10 20 -6 0 -10 40 -10 100 0 60 4 100 10 100 6 0 10 9 10 20 0 18 -7 20 -55
20 -47 0 -55 -3 -55 -19z"/>
<path d="M5990 621 c0 -10 7 -21 15 -25 12 -4 15 -25 15 -101 0 -78 -3 -95
-15 -95 -8 0 -15 -9 -15 -20 0 -18 7 -20 55 -20 48 0 55 2 55 20 0 11 -4 20
-10 20 -6 0 -10 40 -10 100 0 60 4 100 10 100 6 0 10 9 10 20 0 18 -7 20 -55
20 -47 0 -55 -3 -55 -19z"/>
<path d="M6500 595 c0 -14 -4 -25 -10 -25 -5 0 -10 -9 -10 -20 0 -11 5 -20 10
-20 6 0 10 -28 10 -65 0 -76 22 -108 68 -103 34 4 43 37 13 45 -18 5 -21 13
-21 64 0 46 3 59 15 59 8 0 15 9 15 20 0 11 -7 20 -15 20 -9 0 -15 9 -15 25 0
21 -5 25 -30 25 -25 0 -30 -4 -30 -25z"/>
<path d="M370 557 c-30 -15 -56 -82 -47 -119 13 -52 41 -73 96 -73 53 0 77 14
68 39 -5 12 -12 14 -32 6 -30 -11 -52 -4 -66 21 -9 18 -5 19 51 19 58 0 60 1
60 25 0 75 -64 115 -130 82z m70 -53 c0 -9 -11 -14 -30 -14 -34 0 -36 3 -15
24 18 17 45 11 45 -10z"/>
<path d="M680 550 c0 -11 5 -20 10 -20 6 0 10 -28 10 -65 0 -52 4 -69 20 -85
22 -22 51 -26 81 -10 13 7 19 7 19 0 0 -5 18 -10 40 -10 33 0 40 3 40 20 0 11
-4 20 -10 20 -6 0 -10 35 -10 85 l0 85 -45 0 c-37 0 -45 -3 -45 -19 0 -10 7
-21 15 -25 23 -9 21 -102 -3 -115 -31 -16 -42 6 -42 86 l0 73 -40 0 c-33 0
-40 -3 -40 -20z"/>
<path d="M1253 560 c-12 -5 -29 -22 -37 -39 -56 -108 62 -215 145 -132 24 24
29 38 29 76 0 80 -64 124 -137 95z m77 -66 c21 -53 -20 -112 -54 -78 -19 18
-21 75 -4 92 20 20 48 14 58 -14z"/>
<path d="M1700 550 c0 -11 5 -20 10 -20 6 0 10 -28 10 -65 0 -52 4 -69 20 -85
22 -22 51 -26 81 -10 13 7 19 7 19 0 0 -5 18 -10 40 -10 33 0 40 3 40 20 0 11
-4 20 -10 20 -6 0 -10 35 -10 85 l0 85 -45 0 c-37 0 -45 -3 -45 -19 0 -10 7
-21 15 -25 23 -9 21 -102 -3 -115 -31 -16 -42 6 -42 86 l0 73 -40 0 c-33 0
-40 -3 -40 -20z"/>
<path d="M2013 560 c-26 -11 -53 -59 -53 -95 0 -87 98 -138 155 -80 14 13 25
29 25 35 0 15 -42 12 -64 -5 -17 -13 -22 -13 -38 2 -23 20 -24 76 -2 98 20 20
36 15 49 -13 5 -12 18 -22 27 -22 24 0 35 47 16 67 -19 18 -85 26 -115 13z"/>
<path d="M2440 550 c0 -11 5 -20 10 -20 6 0 10 -28 10 -65 0 -52 4 -69 20 -85
22 -22 51 -26 81 -10 13 7 19 7 19 0 0 -5 18 -10 40 -10 33 0 40 3 40 20 0 11
-4 20 -10 20 -6 0 -10 35 -10 85 l0 85 -45 0 c-37 0 -45 -3 -45 -19 0 -10 7
-21 15 -25 23 -9 21 -102 -3 -115 -31 -16 -42 6 -42 86 l0 73 -40 0 c-33 0
-40 -3 -40 -20z"/>
<path d="M2700 550 c0 -11 7 -20 15 -20 12 0 15 -14 15 -65 0 -37 -4 -65 -10
-65 -5 0 -10 -9 -10 -20 0 -18 7 -20 55 -20 41 0 55 4 55 15 0 7 -7 18 -16 23
-11 6 -14 21 -12 58 3 45 5 49 31 52 23 3 27 8 27 33 0 31 -25 40 -48 17 -9
-9 -12 -9 -12 0 0 8 -17 12 -45 12 -38 0 -45 -3 -45 -20z"/>
<path d="M2890 550 c0 -11 5 -20 10 -20 6 0 10 -28 10 -65 0 -37 -4 -65 -10
-65 -5 0 -10 -9 -10 -20 0 -18 7 -20 55 -20 48 0 55 2 55 20 0 11 -7 20 -15
20 -12 0 -15 16 -15 85 l0 85 -40 0 c-33 0 -40 -3 -40 -20z"/>
<path d="M3020 550 c0 -11 6 -20 13 -20 7 0 25 -38 41 -85 28 -83 30 -85 61
-85 31 0 32 3 60 81 15 44 34 83 41 86 8 3 14 14 14 24 0 16 -8 19 -50 19 -43
0 -50 -3 -50 -19 0 -11 5 -21 10 -23 7 -2 4 -22 -7 -53 l-17 -50 -12 40 c-7
22 -10 55 -7 73 l5 32 -51 0 c-44 0 -51 -3 -51 -20z"/>
<path d="M3330 557 c-17 -8 -26 -22 -28 -43 -3 -35 14 -53 62 -69 17 -5 31
-17 31 -25 0 -21 -43 -26 -51 -6 -3 9 -15 16 -25 16 -14 0 -19 -7 -19 -29 0
-27 3 -30 44 -36 58 -9 99 5 110 37 13 38 2 56 -49 78 -25 11 -45 26 -45 35 0
20 39 20 46 0 4 -8 15 -15 25 -15 14 0 19 7 19 29 0 24 -5 29 -31 35 -45 9
-61 7 -89 -7z"/>
<path d="M3813 560 c-15 -6 -23 -18 -23 -35 0 -30 26 -34 46 -7 10 13 17 15
31 6 26 -16 22 -39 -7 -42 -55 -6 -71 -14 -80 -37 -21 -55 31 -102 85 -77 15
7 26 8 30 2 4 -6 22 -10 41 -10 27 0 34 4 34 20 0 11 -4 20 -10 20 -6 0 -10
26 -10 59 0 74 -19 101 -75 107 -22 2 -50 -1 -62 -6z m77 -124 c0 -20 -25 -37
-44 -30 -16 6 -21 25 -9 37 12 13 53 7 53 -7z"/>
<path d="M6300 557 c-17 -8 -26 -22 -28 -43 -3 -35 14 -53 62 -69 17 -5 31
-17 31 -25 0 -21 -43 -26 -51 -6 -3 9 -15 16 -25 16 -14 0 -19 -7 -19 -29 0
-27 3 -30 44 -36 58 -9 99 5 110 37 13 38 2 56 -49 78 -25 11 -45 26 -45 35 0
20 39 20 46 0 4 -8 15 -15 25 -15 14 0 19 7 19 29 0 24 -5 29 -31 35 -45 9
-61 7 -89 -7z"/>
<path d="M6640 550 c0 -11 5 -20 10 -20 6 0 10 -28 10 -65 0 -52 4 -69 20 -85
22 -22 51 -26 81 -10 13 7 19 7 19 0 0 -5 18 -10 40 -10 33 0 40 3 40 20 0 11
-4 20 -10 20 -6 0 -10 35 -10 85 l0 85 -45 0 c-37 0 -45 -3 -45 -19 0 -10 7
-21 15 -25 23 -9 21 -102 -3 -115 -31 -16 -42 6 -42 86 l0 73 -40 0 c-33 0
-40 -3 -40 -20z"/>
<path d="M6890 551 c0 -10 7 -21 15 -25 12 -4 15 -25 15 -101 0 -76 -3 -97
-15 -101 -8 -4 -15 -15 -15 -25 0 -16 8 -19 55 -19 48 0 55 2 55 20 0 11 -4
20 -10 20 -5 0 -10 11 -10 24 0 22 3 24 33 19 49 -8 78 21 84 83 9 89 -40 144
-103 115 -15 -6 -24 -7 -24 -1 0 6 -18 10 -40 10 -33 0 -40 -4 -40 -19z m144
-47 c12 -33 6 -83 -11 -92 -32 -17 -43 -3 -43 54 0 50 2 54 24 54 13 0 27 -7
30 -16z"/>
<path d="M7200 557 c-30 -15 -56 -82 -47 -119 13 -52 41 -73 96 -73 53 0 77
14 68 39 -5 12 -12 14 -32 6 -30 -11 -52 -4 -66 21 -9 18 -5 19 51 19 58 0 60
1 60 25 0 75 -64 115 -130 82z m70 -53 c0 -9 -11 -14 -30 -14 -34 0 -36 3 -15
24 18 17 45 11 45 -10z"/>
<path d="M7370 550 c0 -11 5 -20 10 -20 6 0 10 -28 10 -65 0 -37 -4 -65 -10
-65 -5 0 -10 -9 -10 -20 0 -17 7 -20 50 -20 43 0 50 3 50 20 0 11 -5 20 -10
20 -7 0 -10 22 -8 58 3 53 5 57 28 57 23 0 25 -4 28 -57 2 -36 -1 -58 -8 -58
-5 0 -10 -9 -10 -20 0 -18 7 -20 55 -20 43 0 55 3 55 15 0 9 -7 18 -15 21 -11
5 -15 22 -15 70 0 51 -4 68 -20 84 -24 24 -48 25 -78 4 -20 -14 -22 -14 -22 0
0 12 -10 16 -40 16 -33 0 -40 -3 -40 -20z"/>
<path d="M7630 550 c0 -11 5 -20 10 -20 6 0 10 -28 10 -65 0 -37 -4 -65 -10
-65 -5 0 -10 -9 -10 -20 0 -18 7 -20 55 -20 48 0 55 2 55 20 0 11 -7 20 -15
20 -12 0 -15 16 -15 85 l0 85 -40 0 c-33 0 -40 -3 -40 -20z"/>
<path d="M7770 550 c0 -11 6 -20 13 -20 7 0 25 -38 41 -85 28 -83 30 -85 61
-85 31 0 32 3 60 81 15 44 34 83 41 86 8 3 14 14 14 24 0 16 -8 19 -50 19 -43
0 -50 -3 -50 -19 0 -11 5 -21 10 -23 7 -2 4 -22 -7 -53 l-17 -50 -12 40 c-7
22 -10 55 -7 73 l5 32 -51 0 c-44 0 -51 -3 -51 -20z"/>
<path d="M5520 480 c0 -18 7 -20 55 -20 48 0 55 2 55 20 0 18 -7 20 -55 20
-48 0 -55 -2 -55 -20z"/>
</g>
</svg>
